# AST/ASF file generated using VICON BodyLanguage
# -----------------------------------------------
:version 1.10
:name VICON
:units
  mass 1.0
  length 0.45
  angle deg
:documentation
   .ast/.asf automatically generated from VICON data using
   VICON BodyBuilder and BodyLanguage model FoxedUp or BRILLIANT.MOD
:root
   order TX TY TZ RX RY RZ
   axis XYZ
   position 0 0 0  
   orientation 0 0 0 
:bonedata
  begin
     id 1 
     name lhipjoint
     direction 0.560651 -0.75055 0.34978 
     length 2.44936 
     axis 0 0 0  XYZ
  end
  begin
     id 2 
     name lfemur
     direction 0.34202 -0.939693 0  
     length 7.42139  
     axis 0 0 20  XYZ
    dof rx ry rz
    limits (-160.0 20.0)
           (-70.0 70.0)
           (-60.0 70.0)
  end
  begin
     id 3 
     name ltibia
     direction 0.34202 -0.939693 0   
     length 7.75674   
     axis 0 0 20   XYZ
    dof rx
    limits (-10.0 170.0)
  end
  begin
     id 4 
     name lfoot
     direction 0.0925879 -0.254383 0.962661   
     length 2.38688   
     axis -90 7.62852e-016 20   XYZ
    dof rx rz
    limits (-45.0 90.0)
           (-70.0 20.0)
  end
  begin
     id 5 
     name ltoes
     direction 1.53567e-011 -4.21973e-011 1   
     length 1.19228   
     axis -90 7.62852e-016 20   XYZ
    dof rx
    limits (-90.0 20.0)
  end
  begin
     id 6 
     name rhipjoint
     direction -0.540087 -0.762838 0.355506   
     length 2.4099  
     axis 0 0 0  XYZ 
  end
  begin
     id 7 
     name rfemur
     direction -0.34202 -0.939693 0   
     length 7.70794   
     axis 0 0 -20   XYZ
    dof rx ry rz
    limits (-160.0 20.0)
           (-70.0 70.0)
           (-70.0 60.0)
  end
  begin
     id 8 
     name rtibia
     direction -0.34202 -0.939693 0   
     length 7.66106   
     axis 0 0 -20   XYZ
    dof rx
    limits (-10.0 170.0)
 end
 begin
     id 9 
     name rfoot
     direction -0.0830975 -0.228308 0.970036   
     length 2.4989  
     axis -90 -7.62852e-016 -20   XYZ
    dof rx rz
    limits (-45.0 90.0)
           (-20.0 70.0)
  end
  begin
     id 10 
     name rtoes
     direction -1.53517e-011 -4.21842e-011 1   
     length 1.2498   
     axis -90 -7.62852e-016 -20   XYZ
    dof rx
    limits (-90.0 20.0)
  end
  begin
     id 11 
     name lowerback
     direction 0.0266356 0.99402 -0.105896   
     length 2.1545   
     axis 0 0 0   XYZ
    dof rx ry rz
    limits (-20.0 45.0)
           (-30.0 30.0)
           (-30.0 30.0)
  end
  begin
     id 12 
     name upperback
     direction 0.0130547 0.999192 0.0380027   
     length 2.1434   
     axis 0 0 0   XYZ
    dof rx ry rz
    limits (-20.0 45.0)
           (-30.0 30.0)
           (-30.0 30.0)
  end
  begin
     id 13 
     name thorax
     direction 0.000590299 0.996288 0.0860764   
     length 2.19049   
     axis 0 0 0   XYZ
    dof rx ry rz
    limits (-20.0 45.0)
           (-30.0 30.0)
           (-30.0 30.0)
  end
  begin
     id 14 
     name lowerneck
     direction -0.0432125 0.978219 0.203028   
     length 1.62441   
     axis 0 0 0   XYZ
    dof rx ry rz
    limits (-20.0 45.0)
           (-30.0 30.0)
           (-30.0 30.0)
  end
  begin
     id 15 
     name upperneck
     direction -0.0192309 0.991699 -0.127138   
     length 1.66666   
     axis 0 0 0   XYZ
    dof rx ry rz
    limits (-20.0 45.0)
           (-30.0 30.0)
           (-30.0 30.0)
  end
  begin
     id 16
     name head
     direction -0.00434499 0.997882 -0.0649107  
     length 1.67142  
     axis 0 0 0   XYZ
    dof rx ry rz
    limits (-20.0 45.0)
           (-30.0 30.0)
           (-30.0 30.0)
  end
  begin
     id 17 
     name lclavicle
     direction 0.970351 0.240904 -0.0196058  
     length 4.04862  
     axis 0 0 0   XYZ
    dof ry rz
    limits (-20.0 10.0)
           (0.0 20.0)
  end
  begin
     id 18 
     name lhumerus
     direction 1 -4.4896e-011 -1.40911e-018   
     length 5.58345   
     axis 180 -30 -90   XYZ
    dof rx ry rz
    limits (-60.0 90.0)
           (-90.0 90.0)
           (-90.0 90.0)
  end
  begin
     id 19
     name lradius
     direction 1 -4.48968e-011 5.88912e-028   
     length 3.71087   
     axis 180 -30 -90   XYZ
    dof rx
    limits (-10.0 170.0)
  end
  begin
     id 20
     name lwrist
     direction 1 -4.48955e-011 -8.83775e-028   
     length 1.85544   
     axis 5.52448e-016 90 90   XYZ
    dof ry
    limits (-180.0 0.0)
 end
  begin
     id 21 
     name lhand
     direction 1 -4.49035e-011 -1.76755e-027   
     length 0.562322   
     axis 1.12785e-015 90 90   XYZ
    dof rx rz
    limits (-90.0 90.0)
           (-45.0 45.0)
  end
  begin
     id 22 
     name lfingers
     direction 1 -4.48824e-011 -3.5351e-027   
     length 0.453359   
     axis 2.2557e-015 90 90   XYZ
    dof rx
    limits (0.0 90.0)
  end
  begin
     id 23
     name lthumb
     direction 0.707107 -6.34888e-011 0.707107   
     length 0.650935   
     axis -90 45 2.85299e-015   XYZ
    dof rx rz
    limits (-45.0 45.0)
           (-45.0 45.0)
  end
  begin
     id 24 
     name rclavicle
     direction -0.96165 0.268562 -0.0557131   
     length 4.05446  
     axis 0 0 0   XYZ 
    dof ry rz
    limits (-10.0 20.0)
           (-20.0 0.0)
  end
  begin
     id 25 
     name rhumerus
     direction -1 -4.48957e-011 -3.36329e-027  
     length 5.20357   
     axis 180 30 90   XYZ
    dof rx ry rz
    limits (-90.0 60.0)
           (-90.0 90.0)
           (-90.0 90.0)
  end
  begin
     id 26 
     name rradius
     direction -1 -4.48974e-011 4.51441e-027   
     length 3.64937   
     axis 180 30 90   XYZ
    dof rx
    limits (-10.0 170.0)
  end
  begin
     id 27 
     name rwrist
     direction -1 -4.4896e-011 -8.83775e-028   
     length 1.82468   
     axis 5.52448e-016 -90 -90   XYZ
    dof ry
    limits (-180.0 0.0)
  end
  begin
     id 28
     name rhand
     direction -1 -4.48996e-011 -1.76755e-027   
     length 0.617996   
     axis 1.12785e-015 -90 -90   XYZ
    dof rx rz
    limits (-90.0 90.0)
           (-45.0 45.0)
  end
  begin
     id 29
     name rfingers
     direction -1 -4.48957e-011 -3.5351e-027   
     length 0.498244   
     axis 2.2557e-015 -90 -90   XYZ
    dof rx
    limits (0.0 90.0)
  end
  begin
     id 30
     name rthumb
     direction -0.707107 -6.34931e-011 0.707107   
     length 0.715382   
     axis -90 -45 -2.85299e-015   XYZ
    dof rx rz
    limits (-45.0 45.0)
           (-45.0 45.0)
  end
:hierarchy
  begin
    root lhipjoint rhipjoint lowerback
    lhipjoint lfemur
    lfemur ltibia
    ltibia lfoot
    lfoot ltoes
    rhipjoint rfemur
    rfemur rtibia
    rtibia rfoot
    rfoot rtoes
    lowerback upperback
    upperback thorax
    thorax lowerneck lclavicle rclavicle
    lowerneck upperneck
    upperneck head
    lclavicle lhumerus
    lhumerus lradius
    lradius lwrist
    lwrist lhand lthumb
    lhand lfingers
    rclavicle rhumerus
    rhumerus rradius
    rradius rwrist
    rwrist rhand rthumb
    rhand rfingers
  end

#!OML:ASF H:\ManfredETheater\Project 1\Capture day 2\Session 1\Male1.ASF
:FULLY-SPECIFIED
:DEGREES
48
root 10.3865 15.631 21.2179 -120.027 -56.7922 -189.043
lowerback 53.736 -6.75639 18.4298
upperback 6.57679 0.589813 1.56151
thorax -12.5167 -0.991043 -6.34673
lowerneck -17.8139 -2.01557 3.67187
upperneck -2.93408 -3.75901 -6.84666
head 1.96207 -2.39043 -3.21985
rclavicle 4.29375e-014 1.31198e-014
rhumerus 38.0024 4.81906 -54.3322
rradius 97.1009
rwrist -0.30625
rhand -31.5316 2.14374
rfingers 7.12502
rthumb -4.79644 -27.782
lclavicle 4.29375e-014 1.31198e-014
lhumerus 57.8999 -2.70547 63.8009
lradius 59.88
lwrist 4.29907
lhand -34.6549 5.6877
lfingers 7.12502
lthumb -7.81166 35.5234
rfemur -93.4102 -9.53493 21.5301
rtibia 74.3123
rfoot -27.045 -10.8332
rtoes -20.7982
lfemur -59.6442 -5.58614 -1.53462
ltibia 58.9406
lfoot -31.7768 -4.96116
ltoes -14.8343
49
root 10.2231 15.615 20.7833 -116.898 -57.2975 -191.183
lowerback 53.6561 -6.8948 18.5838
upperback 6.47962 0.56881 1.432
thorax -12.6115 -0.978942 -6.55362
lowerneck -17.6704 -2.17217 3.70944
upperneck -3.28423 -4.00406 -6.98452
head 1.79955 -2.52227 -3.27606
rclavicle -1.24042e-013 -1.47101e-014
rhumerus 39.1963 4.00642 -52.8421
rradius 97.2907
rwrist -0.234406
rhand -31.7011 1.8137
rfingers 7.12502
rthumb -4.9601 -28.1082
lclavicle -1.24042e-013 -1.47101e-014
lhumerus 60.1061 -2.68522 63.33
lradius 60.0298
lwrist 3.62503
lhand -34.3059 5.90033
lfingers 7.12502
lthumb -7.47482 35.7483
rfemur -93.6616 -9.66717 21.8694
rtibia 75.1465
rfoot -28.4016 -11.9939
rtoes -20.7418
lfemur -59.2382 -5.60858 -1.27185
ltibia 57.8477
lfoot -30.7434 -3.83917
ltoes -14.4609
50
root 10.0553 15.5945 20.3476 -113.799 -57.647 -193.318
lowerback 53.5621 -6.9545 18.6222
upperback 6.4155 0.564431 1.32642
thorax -12.6777 -0.956684 -6.69784
lowerneck -17.515 -2.31969 3.74084
upperneck -3.612 -4.23421 -7.17565
head 1.64302 -2.64801 -3.34836
rclavicle 1.43125e-014 7.95139e-014
rhumerus 40.3831 3.12485 -51.2653
rradius 97.4022
rwrist -0.123631
rhand -31.9155 1.46811
rfingers 7.12502
rthumb -5.16713 -28.4489
lclavicle 1.43125e-014 7.95139e-014
lhumerus 62.2777 -2.65842 62.9783
lradius 60.16
lwrist 2.84122
lhand -33.8927 6.1729
lfingers 7.12502
lthumb -7.07598 36.0346
rfemur -93.839 -9.74143 22.176
rtibia 75.9145
rfoot -29.6909 -13.0465
rtoes -20.71
lfemur -58.727 -5.57165 -1.05936
ltibia 56.935
lfoot -29.8358 -2.36537
ltoes -13.93
51
root 9.88303 15.5697 19.9115 -110.784 -57.8476 -195.391
lowerback 53.4765 -6.93832 18.5378
upperback 6.37315 0.577023 1.24534
thorax -12.7313 -0.925268 -6.77434
lowerneck -17.3522 -2.45574 3.75983
upperneck -3.89678 -4.44361 -7.41102
head 1.50064 -2.76378 -3.43302
rclavicle 5.08889e-014 7.15625e-015
rhumerus 41.564 2.19805 -49.6207
rradius 97.4232
rwrist 0.0609289
rhand -32.1083 1.14016
rfingers 7.12502
rthumb -5.35329 -28.7722
lclavicle 5.08889e-014 7.15625e-015
lhumerus 64.3931 -2.6405 62.7625
lradius 60.2659
lwrist 1.9784
lhand -33.4453 6.47535
lfingers 7.12502
lthumb -6.64406 36.3511
rfemur -93.9008 -9.75018 22.4628
rtibia 76.5628
rfoot -30.9441 -14.0335
rtoes -20.7119
lfemur -58.1039 -5.46843 -0.875818
ltibia 56.2524
lfoot -29.0593 -0.766353
ltoes -13.2883
52
root 9.70601 15.5419 19.4756 -107.898 -57.9085 -197.359
lowerback 53.4235 -6.843 18.3325
upperback 6.34001 0.620207 1.19338
thorax -12.7867 -0.880709 -6.783
lowerneck -17.181 -2.58607 3.77212
upperneck -4.13213 -4.64128 -7.70344
head 1.37329 -2.87456 -3.53653
rclavicle -1.90833e-014 -2.70347e-014
rhumerus 42.7117 1.22545 -47.8871
rradius 97.3456
rwrist 0.309818
rhand -32.2942 0.863801
rfingers 7.12502
rthumb -5.53275 -29.044
lclavicle -1.90833e-014 -2.70347e-014
lhumerus 66.4347 -2.67205 62.7075
lradius 60.3566
lwrist 1.09004
lhand -32.9937 6.78137
lfingers 7.12502
lthumb -6.20809 36.6704
rfemur -93.8199 -9.70513 22.7491
rtibia 77.0526
rfoot -32.1705 -14.9713
rtoes -20.7498
lfemur -57.3624 -5.3005 -0.703362
ltibia 55.835
lfoot -28.3877 0.68948
ltoes -12.6803
53
root 9.52403 15.5121 19.041 -105.149 -57.8589 -199.199
lowerback 53.3925 -6.69776 18.0467
upperback 6.30664 0.680826 1.15549
thorax -12.8512 -0.829295 -6.75067
lowerneck -17.0114 -2.70839 3.76638
upperneck -4.29988 -4.82045 -8.03432
head 1.26951 -2.97595 -3.65097
rclavicle 6.67916e-014 1.4233e-013
rhumerus 43.8169 0.2244 -46.0971
rradius 97.167
rwrist 0.647219
rhand -32.3857 0.653276
rfingers 7.12502
rthumb -5.62114 -29.2522
lclavicle 6.67916e-014 1.4233e-013
lhumerus 68.3788 -2.7734 62.8009
lradius 60.4445
lwrist 0.241274
lhand -32.5664 7.07046
lfingers 7.12502
lthumb -5.79561 36.9712
rfemur -93.6006 -9.6199 23.0502
rtibia 77.3602
rfoot -33.3343 -15.899
rtoes -20.8067
lfemur -56.523 -5.08036 -0.501701
ltibia 55.6999
lfoot -27.7924 1.7466
ltoes -12.3039
54
root 9.33674 15.4808 18.6088 -102.535 -57.7127 -200.905
lowerback 53.3781 -6.51081 17.7053
upperback 6.26938 0.762384 1.12779
thorax -12.9251 -0.769983 -6.69309
lowerneck -16.8324 -2.83191 3.73979
upperneck -4.41555 -4.99443 -8.39314
head 1.18128 -3.07434 -3.77212
rclavicle -5.08889e-014 4.45278e-014
rhumerus 44.8411 -0.825153 -44.2561
rradius 96.9156
rwrist 1.04608
rhand -32.3893 0.507992
rfingers 7.12502
rthumb -5.62463 -29.3974
lclavicle -5.08889e-014 4.45278e-014
lhumerus 70.215 -2.9832 63.0532
lradius 60.5473
lwrist -0.510236
lhand -32.1695 7.33644
lfingers 7.12502
lthumb -5.41235 37.2473
rfemur -93.2619 -9.53163 23.3848
rtibia 77.4804
rfoot -34.4578 -16.7094
rtoes -20.9145
lfemur -55.5967 -4.83244 -0.250815
ltibia 55.848
lfoot -27.2276 2.26094
ltoes -12.2969
55
root 9.14349 15.4492 18.1794 -100.045 -57.4904 -202.48
lowerback 53.3696 -6.3098 17.3503
upperback 6.22388 0.852551 1.09416
thorax -13.0092 -0.708339 -6.6398
lowerneck -16.6349 -2.95825 3.68095
upperneck -4.49108 -5.1638 -8.75734
head 1.10348 -3.16892 -3.88919
rclavicle -6.04305e-014 -8.42847e-014
rhumerus 45.7512 -1.91012 -42.3809
rradius 96.6168
rwrist 1.50481
rhand -32.3037 0.417857
rfingers 7.12502
rthumb -5.54194 -29.4897
lclavicle -6.04305e-014 -8.42847e-014
lhumerus 71.9253 -3.30997 63.4297
lradius 60.6837
lwrist -1.11352
lhand -31.8053 7.57644
lfingers 7.12502
lthumb -5.06074 37.496
rfemur -92.8174 -9.44865 23.7415
rtibia 77.4162
rfoot -35.5044 -17.4178
rtoes -21.1375
lfemur -54.5934 -4.57821 0.0680592
ltibia 56.2626
lfoot -26.6507 2.1425
ltoes -12.673
56
root 8.94376 15.4177 17.7529 -97.6627 -57.2061 -203.928
lowerback 53.3489 -6.12046 17.0141
upperback 6.17375 0.932551 1.03546
thorax -13.0966 -0.651483 -6.61777
lowerneck -16.4051 -3.08184 3.59685
upperneck -4.55507 -5.32434 -9.11444
head 1.02457 -3.25688 -3.9974
rclavicle -9.54166e-015 -1.59028e-015
rhumerus 46.5368 -3.0092 -40.516
rradius 96.2938
rwrist 2.03826
rhand -32.1483 0.370192
rfingers 7.12502
rthumb -5.3919 -29.5412
lclavicle -9.54166e-015 -1.59028e-015
lhumerus 73.511 -3.76142 63.8958
lradius 60.8529
lwrist -1.53967
lhand -31.4805 7.80594
lfingers 7.12502
lthumb -4.74712 37.7328
rfemur -92.2886 -9.37018 24.103
rtibia 77.1823
rfoot -36.4607 -18.0057
rtoes -21.4575
lfemur -53.5192 -4.33289 0.460903
ltibia 56.9166
lfoot -26.0044 1.43663
ltoes -13.2517
